HIERARCHY
ROOT hip
{
  OFFSET 0 0 0
  CHANNELS 6 Xposition Yposition Zposition Zrotation Yrotation Xrotation
  JOINT abdomen
  {
    OFFSET 0 20.6881 -0.73152
    CHANNELS 3 Zrotation Xrotation Yrotation
    JOINT chest
    {
      OFFSET 0 11.7043 -0.48768
      CHANNELS 3 Zrotation Xrotation Yrotation
      JOINT neck
      {
        OFFSET 0 22.1894 -2.19456
        CHANNELS 3 Zrotation Xrotation Yrotation
        JOINT head
        {
          OFFSET -0.24384 7.07133 1.2192
          CHANNELS 3 Zrotation Xrotation Yrotation
          JOINT leftEye
          {
            OFFSET 4.14528 8.04674 8.04672
            CHANNELS 3 Zrotation Xrotation Yrotation
            End Site
            {
              OFFSET 1 0 0
            }
          }
          JOINT rightEye
          {
            OFFSET -3.6576 8.04674 8.04672
            CHANNELS 3 Zrotation Xrotation Yrotation
            End Site
            {
              OFFSET 1 0 0
            }
          }
        }
      }
      JOINT rCollar
      {
        OFFSET -2.68224 19.2634 -4.8768
        CHANNELS 3 Zrotation Xrotation Yrotation
        JOINT rShldr
        {
          OFFSET -8.77824 -1.95073 1.46304
          CHANNELS 3 Zrotation Xrotation Yrotation
          JOINT rForeArm
          {
            OFFSET -28.1742 -1.7115 0.48768
            CHANNELS 3 Zrotation Xrotation Yrotation
            JOINT rHand
            {
              OFFSET -22.5879 0.773209 7.07136
              CHANNELS 3 Zrotation Xrotation Yrotation
              JOINT rThumb1
              {
                OFFSET -1.2192 -0.487915 3.41376
                CHANNELS 3 Zrotation Xrotation Yrotation
                JOINT rThumb2
                {
                  OFFSET -3.37035 -0.52449 3.41376
                  CHANNELS 3 Zrotation Xrotation Yrotation
                  End Site
                  {
                    OFFSET -1.78271 -1.18214 1.43049
                  }
                }
              }
              JOINT rIndex1
              {
                OFFSET -7.75947 0.938293 5.60832
                CHANNELS 3 Zrotation Xrotation Yrotation
                JOINT rIndex2
                {
                  OFFSET -2.54057 -0.884171 1.56538
                  CHANNELS 3 Zrotation Xrotation Yrotation
                  End Site
                  {
                    OFFSET -1.62519 -0.234802 1.16502
                  }
                }
              }
              JOINT rMid1
              {
                OFFSET -8.24714 1.18213 3.41376
                CHANNELS 3 Zrotation Xrotation Yrotation
                JOINT rMid2
                {
                  OFFSET -3.10165 -0.590103 1.0647
                  CHANNELS 3 Zrotation Xrotation Yrotation
                  End Site
                  {
                    OFFSET -2.48547 -0.328903 0.83742
                  }
                }
              }
              JOINT rRing1
              {
                OFFSET -8.82822 0.546677 1.51678
                CHANNELS 3 Zrotation Xrotation Yrotation
                JOINT rRing2
                {
                  OFFSET -2.60934 -0.819778 -0.0198488
                  CHANNELS 3 Zrotation Xrotation Yrotation
                  End Site
                  {
                    OFFSET -2.33842 -0.294052 0.168128
                  }
                }
              }
              JOINT rPinky1
              {
                OFFSET -8.27202 -0.0477905 -0.4584
                CHANNELS 3 Zrotation Xrotation Yrotation
                JOINT rPinky2
                {
                  OFFSET -1.82734 -0.647385 -0.700984
                  CHANNELS 3 Zrotation Xrotation Yrotation
                  End Site
                  {
                    OFFSET -1.69225 -0.51767 -0.607171
                  }
                }
              }
            }
          }
        }
      }
      JOINT lCollar
      {
        OFFSET 2.68224 19.2634 -4.8768
        CHANNELS 3 Zrotation Xrotation Yrotation
        JOINT lShldr
        {
          OFFSET 8.77824 -1.95073 1.46304
          CHANNELS 3 Zrotation Xrotation Yrotation
          JOINT lForeArm
          {
            OFFSET 28.1742 -1.7115 0.48768
            CHANNELS 3 Zrotation Xrotation Yrotation
            JOINT lHand
            {
              OFFSET 22.5879 0.773209 7.07136
              CHANNELS 3 Zrotation Xrotation Yrotation
              JOINT lThumb1
              {
                OFFSET 1.2192 -0.487915 3.41376
                CHANNELS 3 Zrotation Xrotation Yrotation
                JOINT lThumb2
                {
                  OFFSET 3.37035 -0.52449 3.41376
                  CHANNELS 3 Zrotation Xrotation Yrotation
                  End Site
                  {
                    OFFSET 1.78271 -1.18214 1.43049
                  }
                }
              }
              JOINT lIndex1
              {
                OFFSET 7.75947 0.938293 5.60832
                CHANNELS 3 Zrotation Xrotation Yrotation
                JOINT lIndex2
                {
                  OFFSET 2.54057 -0.884171 1.56538
                  CHANNELS 3 Zrotation Xrotation Yrotation
                  End Site
                  {
                    OFFSET 1.62519 -0.234802 1.16502
                  }
                }
              }
              JOINT lMid1
              {
                OFFSET 8.24714 1.18213 3.41376
                CHANNELS 3 Zrotation Xrotation Yrotation
                JOINT lMid2
                {
                  OFFSET 3.10165 -0.590103 1.0647
                  CHANNELS 3 Zrotation Xrotation Yrotation
                  End Site
                  {
                    OFFSET 2.48547 -0.328903 0.83742
                  }
                }
              }
              JOINT lRing1
              {
                OFFSET 8.82822 0.546677 1.51678
                CHANNELS 3 Zrotation Xrotation Yrotation
                JOINT lRing2
                {
                  OFFSET 2.60934 -0.819778 -0.0198488
                  CHANNELS 3 Zrotation Xrotation Yrotation
                  End Site
                  {
                    OFFSET 2.33842 -0.294052 0.168128
                  }
                }
              }
              JOINT lPinky1
              {
                OFFSET 8.27202 -0.0477905 -0.4584
                CHANNELS 3 Zrotation Xrotation Yrotation
                JOINT lPinky2
                {
                  OFFSET 1.82734 -0.647385 -0.700984
                  CHANNELS 3 Zrotation Xrotation Yrotation
                  End Site
                  {
                    OFFSET 1.69225 -0.51767 -0.607171
                  }
                }
              }
            }
          }
        }
      }
    }
  }
  JOINT rButtock
  {
    OFFSET -8.77824 4.35084 1.2192
    CHANNELS 3 Zrotation Xrotation Yrotation
    JOINT rThigh
    {
      OFFSET 0 -1.70687 -2.19456
      CHANNELS 3 Zrotation Xrotation Yrotation
      JOINT rShin
      {
        OFFSET 0 -36.8199 0.73152
        CHANNELS 3 Zrotation Xrotation Yrotation
        JOINT rFoot
        {
          OFFSET 0.73152 -45.1104 -5.12064
          CHANNELS 3 Zrotation Xrotation Yrotation
          End Site
          {
            OFFSET -1.1221 -3.69964 12.103
          }
        }
      }
    }
  }
  JOINT lButtock
  {
    OFFSET 8.77824 4.35084 1.2192
    CHANNELS 3 Zrotation Xrotation Yrotation
    JOINT lThigh
    {
      OFFSET 0 -1.70687 -2.19456
      CHANNELS 3 Zrotation Xrotation Yrotation
      JOINT lShin
      {
        OFFSET 0 -36.8199 0.73152
        CHANNELS 3 Zrotation Xrotation Yrotation
        JOINT lFoot
        {
          OFFSET -0.73152 -45.1104 -5.12064
          CHANNELS 3 Zrotation Xrotation Yrotation
          End Site
          {
            OFFSET 1.1221 -3.69964 12.103
          }
        }
      }
    }
  }
}
MOTION
Frames:	5
Frame Time:	0.00833333
55.1665 80.70819999999999 -29.4263 3.472947 -14.008115 3.411054 -4.555731 -2.540437 -102.942856 -2.062495 -2.893112 95.091523 -8.246835 22.863395 -112.230859 -9.884268 4.538884 101.838596 0.000434 0.0 0.001552 0.003501 -0.0 -0.002131 -157.760871 -21.736893 165.396689 -116.106749 61.781706 128.737744 175.591831 1.471401 67.924681 169.54662 -18.386186 143.687661 83.254012 -50.25861 33.615627 -57.781317 31.422763 19.401415 1.085815 -1.784067 -0.602347 8.151196 5.201252 0.334072 -160.674745 -6.667457 143.245632 -162.175915 -1.466628 142.588544 -0.005491 3.473785 1.0922 10.040079 0.102307 -0.059933 -5.649506 -12.860434 -5.30281 -150.599862 23.960651 -146.270976 157.323375 -17.488748 -164.609499 151.125573 86.925916 -93.158632 99.57248 69.688198 175.449938 3.065308 -10.07101 2.716645 7.758444 7.439065 -1.682533 122.489717 -17.840518 -108.060744 8.572939 12.508362 -5.45067 177.588888 -32.458547 -107.085713 -0.540633 -1.590066 0.294451 11.395427 33.418945 -9.071658 0.006577 3.472208 -1.09019 -10.024483 0.323823 0.029021 36.272053 -44.664879 35.16067 23.862727 -41.203527 25.551344 0.000585 4.6e-05 -0.000752 -5.963622 -52.557358 13.697968 54.293428 67.142675 109.768562 -60.237217 18.163004 177.273135 0.043445 5.8e-05 0.032584 -1.932242 -14.139786 -7.862937 -11.011553 29.367167 -31.553961 95.533441 49.448659 -2.939865
55.005700000000004 80.5092 -29.2206 3.421963 -14.605891 3.219877 -7.314719 0.573233 -0.232852 -0.043738 -0.41736 -8.045752 10.147574 20.482608 120.282289 12.486193 2.638189 -138.743706 -0.001354 -0.0 0.000907 -0.001354 -0.0 0.000907 3.268982 -26.755865 -5.241062 4.736624 -53.013583 2.863639 141.726989 -12.324266 49.432885 -178.13207 15.957671 144.490115 -103.199089 36.331113 60.111742 48.399631 -41.517156 28.14814 -138.76381 4.487505 115.031557 -92.558757 55.468995 71.495756 -0.058207 0.167843 0.031433 -144.48518 37.266583 131.638838 -145.121559 0.310428 -179.225043 -152.415129 -24.953826 -175.351403 -145.175213 12.067589 -141.822282 -25.706683 -40.241758 -27.033686 142.974156 39.431785 -147.390355 91.024258 18.24637 -61.362373 2.511263 -10.749811 115.915275 -177.63216 -15.417068 -143.419858 -173.307775 -23.519202 -87.871381 122.661647 20.358839 -60.974558 83.731962 42.330902 -69.990375 -9.312222 -5.531894 5.402872 36.036214 51.722441 -29.834045 17.869441 42.260549 -14.533994 73.164381 -72.141337 90.198656 -14.063644 27.425077 0.923416 7.902733 -17.073518 7.453505 13.551924 -31.202564 15.008379 -179.99573 75.748054 -0.004406 176.407322 22.246285 1.295543 -24.794392 71.074162 -58.855609 -39.752282 -73.313189 66.491305 0.002597 -0.001256 0.002597 -1.103557 -14.67961 -59.098633 -35.95474 9.191825 -22.894632 105.67351 -53.66295 177.207793
54.9579 80.3366 -29.069499999999998 3.543002 -15.090025 3.173021 -5.352356 -1.738692 -90.630578 -1.824056 -2.525313 81.986627 3.742306 26.224386 171.083872 3.881502 -2.474404 173.909968 -0.002825 0.0 -0.003684 0.001158 0.0 0.002501 -9.652787 34.835916 11.200149 -164.171719 -0.823259 179.475818 -80.124978 88.232598 167.045186 -8.36566 19.687761 0.146935 -2.814477 2.753916 0.498766 -55.2381 27.687145 51.124812 -2.686331 4.226931 1.58268 -61.163599 48.03345 46.493863 -151.476292 17.841552 137.538492 -2.15342 14.708505 3.022279 -145.119673 0.309856 -179.226222 8.752759 -14.063746 -10.957524 -143.939136 8.264809 -140.720143 -81.301427 -52.490647 -80.861979 155.548453 -3.804215 -161.900103 -117.684837 -33.914945 -166.940637 -94.163602 12.782762 -94.363222 124.848595 64.480096 -101.581667 5.434302 5.264545 -1.079009 17.689276 16.029811 -18.270948 164.89199 -41.07244 -122.410065 77.868054 57.071541 -62.503894 161.518213 -9.304462 -143.625043 176.814044 -42.23086 -142.389952 -0.003855 1.771385 -0.556514 53.026347 -86.67158 74.38554 -10.342342 33.912273 -8.911794 -1.53813 -0.864929 0.461032 -0.000379 0.000157 0.000487 -6.176859 -56.319035 -180.0 -28.605444 -82.278664 -13.054509 -153.36791 44.037544 -146.68045 -179.996925 75.749485 -0.003173 176.155688 59.332324 -169.099522 -10.622745 -41.932828 -75.384115 -174.756505 -11.286739 89.974314
54.8776 80.23979999999999 -28.8416 3.752094 -15.639053 2.945989 -5.695653 -1.755431 -90.434897 -1.688952 -2.642972 81.507959 10.223565 19.089905 113.375767 13.021068 4.71769 -131.152229 -0.001528 -0.0 0.003216 -0.000748 0.0 -0.000144 1.990109 -14.052891 -2.88145 2.456263 -21.760491 1.782437 -158.299771 15.963777 52.253144 167.427313 -33.643033 140.967728 -78.030667 38.689305 42.412642 -87.010026 -3.538882 66.598603 5.921061 -10.174636 -2.968906 -5.778245 23.252613 6.614417 68.983852 -80.154059 40.579072 -164.209218 -6.979276 143.380061 0.00245 0.063571 0.021317 8.107713 22.05218 3.177052 16.825255 58.945512 12.648497 -147.899076 10.361245 -142.807206 143.298344 38.83713 -147.736771 83.680124 15.236236 -57.519553 -89.964215 -9.952908 107.048149 120.760212 65.261866 -97.699241 -3.051914 -3.032119 0.389071 2.117869 1.818691 0.280908 83.732241 42.329654 -69.990135 90.030631 51.808355 -66.353939 -5.893448 -18.351934 2.543502 13.441137 36.397841 -10.642893 0.014259 -1.322952 0.417187 155.765781 -8.701657 -172.896726 -12.987668 44.344204 -10.764478 -1.546428 -0.414424 0.460501 179.954966 75.749399 0.037053 175.81755 20.937619 1.419204 10.160158 70.059369 25.605918 -55.439427 41.030605 -6.16234 179.994851 75.749609 0.003523 175.579181 59.4281 -174.86898 10.631322 -38.48646 91.761755 -86.440704 80.216546 -174.454874
54.806 80.1665 -28.6402 3.999997 -16.12109 2.941942 -8.347221 0.468551 -0.281526 -0.41058 -0.837678 -8.921 -7.717656 23.658246 -121.308983 -7.249229 2.618811 111.748701 0.0041 0.0 0.000495 -0.000771 0.0 -0.002244 -9.65136 34.836191 11.199315 7.11338 6.238741 -0.370753 -134.792718 -77.354835 -49.449292 -5.662639 4.738121 -1.509014 -176.927569 -14.532449 89.659312 -96.56913 14.847301 38.662225 25.696963 -44.692234 -5.230734 6.474058 13.828168 0.255466 -125.643833 49.840624 115.275387 -159.04031 6.958285 141.441221 -145.119363 0.310681 -179.224546 -138.771631 -60.555106 -160.819816 -11.663307 -23.131023 -11.069257 -154.252795 38.255919 -148.440525 155.717216 -4.925416 -162.135246 65.404638 20.116432 -10.877152 166.390364 7.483816 100.748195 5.795686 -3.498441 2.634139 -51.059657 -41.204356 -12.855948 21.429067 5.004536 9.513139 0.328057 0.529734 -0.186428 -178.498731 -37.975252 -104.766062 -7.903482 -24.80767 3.01496 163.819266 -6.164355 -143.468976 73.163626 -72.140942 90.198851 -13.906564 29.735435 0.555985 103.688271 -45.13921 101.852314 -16.548031 41.520528 -6.802926 0.0 0.000574 -0.000648 -7.851061 -54.934146 -9.562795 -36.009944 76.207359 -55.12028 -4.569982 -19.783985 81.935502 179.999183 75.747934 0.000559 176.195488 61.599339 -42.049439 -23.50889 24.091312 92.555474 -67.289957 -3.018409 -17.59313
